<svg id="Layer_1" height="512" viewBox="0 0 512 512" width="512" xmlns="http://www.w3.org/2000/svg" data-name="Layer 1"><path d="m199 416h114v19h-114z"/><path d="m199 475h114v20h-114z"/><path d="m199 445h114v20h-114z"/><path d="m283.275 317.418a15.8 15.8 0 0 0 7.533-1.925 24.991 24.991 0 0 1 -5.667-15.85 4.967 4.967 0 1 1 9.934 0 14.963 14.963 0 1 0 29.925 0v-3.806a15.946 15.946 0 0 1 -2.191.1 4.852 4.852 0 0 1 -4.822-5 5 5 0 0 1 5-5 21.795 21.795 0 1 0 0-43.589 5 5 0 0 1 0-10 31.6 31.6 0 0 1 13.543 3.036 14.11 14.11 0 0 0 -1.522-22.4c-.068-.045-.139-.083-.208-.127a5 5 0 0 1 -8.34-5.478 21.8 21.8 0 0 0 -31.819-28.441 5.005 5.005 0 0 1 -5.959-8.044c.611-.451 1.216-.87 1.852-1.274a11.7 11.7 0 0 0 1.236-5.291 11.886 11.886 0 0 0 -23.77 0v137.993a15.267 15.267 0 0 0 15.275 15.096zm32.674-109.04a5 5 0 1 1 9.686 2.488 5.094 5.094 0 0 0 2.686 5.829 5 5 0 0 1 -3.35 9.357 15.063 15.063 0 0 1 -1.888 2.258 5 5 0 1 1 -6.99-7.151 5.062 5.062 0 0 0 1.2-1.895 15.08 15.08 0 0 1 -1.344-10.886zm.528 60.518a5 5 0 0 1 0 7.071 10.729 10.729 0 0 0 -.7 14.4 5 5 0 0 1 -7.716 6.362 20.644 20.644 0 0 1 -4.517-10.269 20.727 20.727 0 0 1 -14.809-3.525 5 5 0 0 1 5.736-8.191 10.692 10.692 0 0 0 10.378 1.039 20.712 20.712 0 0 1 4.559-6.89 5 5 0 0 1 7.069.007zm-39.486-81.656a5 5 0 0 1 7.071.078 4.994 4.994 0 0 0 4.127 1.479 15.049 15.049 0 0 1 15.945-5.778 5 5 0 0 1 -2.486 9.687 5.026 5.026 0 0 0 -2.26-.056 5.089 5.089 0 0 0 -3.449 7.438 5 5 0 1 1 -8.757 4.827 15.078 15.078 0 0 1 -1.575-4.3 15.3 15.3 0 0 1 -.25-1.962 14.98 14.98 0 0 1 -8.444-4.34 5 5 0 0 1 .078-7.073zm-3.017 51.46a17.941 17.941 0 0 1 4.86-2.476 18.154 18.154 0 0 1 3.432-.777 17.863 17.863 0 0 1 3.923-11.743 5 5 0 0 1 7.8 6.257 7.952 7.952 0 0 0 -1.385 7.307 17.954 17.954 0 0 1 9.667 18.329 5 5 0 0 1 -4.951 4.348 4.918 4.918 0 0 1 -.659-.044 5 5 0 0 1 -4.305-5.609 7.876 7.876 0 0 0 -.338-3.523 7.96 7.96 0 0 0 -12.2-3.954 5 5 0 1 1 -5.844-8.115z"/><path d="m189.058 285.934a5.038 5.038 0 0 1 5.044 5 4.925 4.925 0 0 1 -4.911 5 15.946 15.946 0 0 1 -2.191-.1v3.806a14.925 14.925 0 1 0 29.848 0 5.018 5.018 0 0 1 10.035 0 24.943 24.943 0 0 1 -5.61 15.85 15.464 15.464 0 0 0 7.446 1.925 15.272 15.272 0 0 0 15.281-15.093v-137.993a11.932 11.932 0 0 0 -23.862 0 11.74 11.74 0 0 0 1.282 5.291c.636.4 1.264.823 1.875 1.274a5 5 0 0 1 -5.941 8.044 21.8 21.8 0 0 0 -31.814 28.441 5 5 0 0 1 -8.34 5.478c-.069.044-.14.082-.208.127a14.11 14.11 0 0 0 -1.521 22.4 31.609 31.609 0 0 1 13.545-3.036 5 5 0 0 1 .008 10 21.795 21.795 0 1 0 .034 43.589zm50.1-40.253a5 5 0 0 1 -6.98 1.135 7.96 7.96 0 0 0 -12.2 3.954 7.876 7.876 0 0 0 -.338 3.523 5 5 0 0 1 -4.305 5.609 4.907 4.907 0 0 1 -.659.044 5 5 0 0 1 -4.951-4.348 17.952 17.952 0 0 1 9.667-18.329 7.952 7.952 0 0 0 -1.385-7.307 5 5 0 0 1 7.8-6.257 17.863 17.863 0 0 1 3.923 11.743 18.154 18.154 0 0 1 3.432.777 17.941 17.941 0 0 1 4.86 2.476 5 5 0 0 1 1.14 6.98zm-31.3-62.662a15.05 15.05 0 0 1 15.945 5.777 4.989 4.989 0 0 0 4.127-1.478 5 5 0 0 1 7.149 6.993 14.938 14.938 0 0 1 -5.657 3.633 15.127 15.127 0 0 1 -2.787.707 15.447 15.447 0 0 1 -.249 1.96 15.1 15.1 0 0 1 -1.576 4.3 5 5 0 1 1 -8.757-4.827 5.091 5.091 0 0 0 -3.448-7.438 5.015 5.015 0 0 0 -2.261.056 5 5 0 0 1 -2.486-9.687zm-5.272 85.873a20.712 20.712 0 0 1 4.559 6.89 10.694 10.694 0 0 0 10.378-1.039 5 5 0 0 1 5.736 8.191 20.7 20.7 0 0 1 -14.809 3.525 20.653 20.653 0 0 1 -4.517 10.269 5 5 0 1 1 -7.716-6.362 10.729 10.729 0 0 0 -.7-14.4 5 5 0 1 1 7.066-7.075zm-10.182-39.158a4.983 4.983 0 0 1 -3.5-1.424 15.063 15.063 0 0 1 -1.888-2.258 5 5 0 0 1 -3.35-9.357 5.094 5.094 0 0 0 2.686-5.829 5 5 0 1 1 9.686-2.488 15.08 15.08 0 0 1 -1.345 10.886 5.062 5.062 0 0 0 1.2 1.895 5 5 0 0 1 -3.5 8.575z"/><path d="m166.609 335.844a101.673 101.673 0 0 1 32.535 70.156h113.712a103.463 103.463 0 0 1 33.234-70.8 132.18 132.18 0 1 0 -179.481.645zm91.391-171.515a21.932 21.932 0 0 1 43.862 0c0 .3-.017.6-.029.894a31.737 31.737 0 0 1 36.745 38.27c.669.359 1.328.739 1.964 1.162a24.156 24.156 0 0 1 4.383 36.5 31.544 31.544 0 0 1 9.679 22.98 31.1 31.1 0 0 1 -19.6 29.29v6.214a25.013 25.013 0 0 1 -24.965 25.1 24.377 24.377 0 0 1 -11.157-2.694 25.293 25.293 0 0 1 -40.882-19.723zm-86.54 40.326c.637-.423 1.3-.8 1.968-1.163a31.756 31.756 0 0 1 31.015-38.8 32.329 32.329 0 0 1 5.77.535c-.012-.3.017-.6.017-.894a21.885 21.885 0 0 1 43.77 0v137.989a25.244 25.244 0 0 1 -25.236 25.1 25.543 25.543 0 0 1 -15.645-5.373 24.556 24.556 0 0 1 -11.2 2.694 24.974 24.974 0 0 1 -24.919-25.1v-6.214a31.1 31.1 0 0 1 -19.6-29.29 31.548 31.548 0 0 1 9.679-22.98 24.16 24.16 0 0 1 4.385-36.5z"/><path d="m261 69.137a5 5 0 0 0 5-5v-42.137a5 5 0 0 0 -10 0v42.137a5 5 0 0 0 5 5z"/><path d="m414.917 228h42.209a5 5 0 0 0 0-10h-42.209a5 5 0 1 0 0 10z"/><path d="m54.874 228h42.209a5 5 0 0 0 0-10h-42.209a5 5 0 0 0 0 10z"/><path d="m371.462 112.519a4.985 4.985 0 0 0 3.538-1.461l32.937-32.882a5 5 0 1 0 -7.065-7.077l-32.942 32.881a5 5 0 0 0 3.532 8.539z"/><path d="m137.005 111.058a5 5 0 0 0 7.065-7.078l-32.937-32.88a5 5 0 1 0 -7.065 7.077z"/><path d="m101.082 298.373c1.439 3.707 3.031 7.406 4.731 11a5 5 0 1 0 9.038-4.279c-1.6-3.375-3.094-6.853-4.448-10.337a5 5 0 1 0 -9.321 3.62z"/><path d="m150.391 353.319a155.645 155.645 0 0 1 -26.324-31.488 5 5 0 0 0 -8.449 5.349 165.633 165.633 0 0 0 28.015 33.51 66.777 66.777 0 0 1 17.713 26.934 5 5 0 1 0 9.429-3.33 76.823 76.823 0 0 0 -20.384-30.975z"/></svg>